<?xml version="1.0" encoding="UTF-8" standalone="no"?>
<!-- Created with Inkscape (http://www.inkscape.org/) -->

<svg
   xmlns:dc="http://purl.org/dc/elements/1.1/"
   xmlns:cc="http://creativecommons.org/ns#"
   xmlns:rdf="http://www.w3.org/1999/02/22-rdf-syntax-ns#"
   xmlns:svg="http://www.w3.org/2000/svg"
   xmlns="http://www.w3.org/2000/svg"
   xmlns:sodipodi="http://sodipodi.sourceforge.net/DTD/sodipodi-0.dtd"
   xmlns:inkscape="http://www.inkscape.org/namespaces/inkscape"
   id="svg2"
   version="1.1"
   inkscape:version="0.48+devel r"
   width="30"
   height="30"
   viewBox="0 0 30 30"
   sodipodi:docname="collaboration-handshake-small.svg">
  <metadata
     id="metadata8">
    <rdf:RDF>
      <cc:Work
         rdf:about="">
        <dc:format>image/svg+xml</dc:format>
        <dc:type
           rdf:resource="http://purl.org/dc/dcmitype/StillImage" />
        <dc:title></dc:title>
      </cc:Work>
    </rdf:RDF>
  </metadata>
  <defs
     id="defs6" />
  <sodipodi:namedview
     pagecolor="#ffffff"
     bordercolor="#666666"
     borderopacity="1"
     objecttolerance="10"
     gridtolerance="10"
     guidetolerance="10"
     inkscape:pageopacity="0"
     inkscape:pageshadow="2"
     inkscape:window-width="1855"
     inkscape:window-height="1056"
     id="namedview4"
     showgrid="false"
     inkscape:zoom="33.635839"
     inkscape:cx="16.242526"
     inkscape:cy="14.363439"
     inkscape:window-x="65"
     inkscape:window-y="24"
     inkscape:window-maximized="1"
     inkscape:current-layer="svg2"
     showguides="false"
     showborder="true" />
  <path
     style="fill:#d0d0d0;fill-opacity:1;fill-rule:evenodd;stroke:none;stroke-width:1px;stroke-linecap:butt;stroke-linejoin:miter;stroke-opacity:1"
     d="m 23.267967,10.07611 c -0.15532,-0.1331398 -5.591549,-2.7957798 -5.680304,-2.7513998 -0.08875,0.0444 -3.838643,1.99698 -3.838643,1.99698 L 12.484266,13.07158 c 0.260122,0.47741 0.751323,0.33861 1.176,0.37721 0.178278,0.31693 2.827936,-2.76326 2.662642,-3.23955 -0.07275,-0.2096298 1.752907,0.39939 1.952605,0.64347 0.199698,0.24407 3.483624,3.46143 3.505813,3.55019 0.02219,0.0888 0.02219,3.88302 0.02219,3.88302 0,0 0.976302,-1.06506 1.220378,-0.9763 0.244075,0.0888 4.326794,-0.0222 4.326794,-0.0222 0,0 0.06657,-7.27789 -0.02219,-7.27789 -0.08875,0 -4.06053,0.0666 -4.06053,0.0666 z"
     id="path4203"
     inkscape:connector-curvature="0"
     sodipodi:nodetypes="cscccssscscsc" />
  <path
     style="fill:#b9b9b9;fill-opacity:1;fill-rule:evenodd;stroke:none;stroke-width:1px;stroke-linecap:butt;stroke-linejoin:miter;stroke-opacity:1"
     d="m 3.7419213,9.9207802 c 0.08876,0.1331398 0.08876,7.2557098 0.08876,7.2557098 l 3.9717751,0.13313 7.6329096,3.68332 c 1.327092,0.49245 5.912276,-1.75675 6.412531,-2.61827 0,0 -0.221887,-3.77207 -0.155321,-3.86083 0.06657,-0.0888 -3.39487,-3.61675 -3.39487,-3.61675 0,0 -2.059687,-0.72692 -2.01917,-0.62129 0.117632,0.3067 -2.040832,3.21366 -2.19668,2.99548 0,0 -1.575397,0.33283 -1.575397,-0.0666 0,-0.3994 0.998491,-3.5501898 1.087246,-3.7276998 0.08876,-0.17751 1.664151,-1.10943 1.664151,-1.10943 -1.081529,-0.35738 -2.239619,-0.48507 -3.439246,-0.48816 -1.077523,0.23015 -2.1572536,0.41251 -3.3504926,1.90823 z"
     id="path4199"
     inkscape:connector-curvature="0"
     sodipodi:nodetypes="cccccscscsscccc" />
  <path
     style="fill:#060000;fill-opacity:1;fill-rule:evenodd;stroke:none;stroke-width:1px;stroke-linecap:butt;stroke-linejoin:miter;stroke-opacity:1"
     d="m 3.5608703,9.6301302 0.08659,7.8506298 4.0696301,0.0289 0.519527,0.37521 c 0,0 0.487193,-0.23828 0.314018,-0.29601 -0.173176,-0.0577 -0.746957,-0.54101 -0.746957,-0.54101 l -3.8098671,-0.0577 -0.08659,-6.98476 c 0,0 2.6400171,-0.009 4.5025701,0 0.753112,-0.7781698 1.352975,-1.2010198 2.3983816,-1.5952898 0.558991,-0.14556 1.096341,-0.31329 1.660398,-0.37453 0.426821,-0.0463 0.863732,-0.0588 1.287967,0.007 0.413252,0.0642 0.765249,0.12367 1.197553,0.37416 0.06675,0.0387 0.486405,-0.11018 0.371083,-0.20655 -0.334032,-0.27912 -0.874359,-0.44586 -1.376105,-0.52043 -0.562434,-0.0836 -0.886209,-0.0419 -1.325334,0.006 -0.660107,0.0727 -1.321225,0.20083 -1.94661,0.42427 -0.524361,0.18735 -1.0262546,0.44796 -1.4880426,0.7591 -0.316749,0.21342 -0.621147,0.52168 -0.865879,0.75043 -1.891407,-0.0513 -4.7623331,0 -4.7623331,0 z"
     id="path3339"
     inkscape:connector-curvature="0"
     sodipodi:nodetypes="ccccscccccaasssaaacc" />
  <path
     style="fill:none;fill-rule:evenodd;stroke:#000000;stroke-width:0.07966084px;stroke-linecap:butt;stroke-linejoin:miter;stroke-opacity:0"
     d="m 17.379109,7.5754702 c -0.02218,-0.11098 -3.519634,1.71616 -3.579509,1.83012 -0.05633,0.10721 -1.103458,3.2296298 -1.103458,3.2296298 l 0.08074,0.57865 c 0.412675,0.17499 0.82535,0.0302 1.238026,-0.14803 0.503219,-0.32678 0.954241,-0.83625 1.386051,-1.41296 l 0.780495,-1.60136 2.180002,0.56518 3.364202,3.60643 c 0.04129,0 0.307422,0.79395 0.255679,0.92852 -0.04854,0.12623 -0.0942,2.94704 -0.0942,2.94704 l 0.995804,-0.96889 c 0,0 4.25235,0.16148 4.292721,0.0942 0.04037,-0.0673 0,-6.98409 0,-6.98409 0,0 -4.075574,0.10733 -4.144696,0 C 22.781901,9.8531802 17.825689,7.3515102 17.379107,7.5754702 Z"
     id="path4143"
     inkscape:connector-curvature="0"
     sodipodi:nodetypes="cscccccccsccscsc" />
  <path
     style="fill:#050000;fill-opacity:1;fill-rule:evenodd;stroke:none;stroke-width:1px;stroke-linecap:butt;stroke-linejoin:miter;stroke-opacity:1"
     d="m 9.6379454,16.54181 c -0.641849,0.42985 -1.135659,1.04475 -1.703489,1.56712 -0.111218,0.24554 -0.09561,0.48053 -0.0063,0.70936 0.149171,0.34138 0.360794,0.64112 0.759584,0.81608 0.179513,0.0682 0.410166,0.13644 0.781384,0.0605 l 1.4597006,-2.06928 c -0.01768,-0.21017 -0.0544,-0.36936 -0.125551,-0.53987 -0.10479,-0.25113 -0.550142,-0.52152 -0.558107,-0.50957 -0.210814,-0.0887 -0.4657216,-0.0864 -0.6072446,-0.0343 z"
     id="path4156"
     inkscape:connector-curvature="0"
     sodipodi:nodetypes="ccccccscc" />
  <path
     style="fill:#050000;fill-opacity:1;fill-rule:evenodd;stroke:none;stroke-width:1px;stroke-linecap:butt;stroke-linejoin:miter;stroke-opacity:1"
     d="m 14.017403,15.87412 c -0.69699,-0.50529 -1.250219,-0.35476 -1.619608,0.0188 -1.038929,1.08665 -1.970591,2.23766 -2.9316166,3.37105 -0.01303,0.21384 -0.05743,0.41984 0.0565,0.66542 0.08795,0.28678 0.313869,0.49997 0.6528646,0.65286 0.177675,0.0927 0.372658,0.12489 0.583813,0.10044 0.228615,-0.044 0.51991,-0.13776 0.665744,-0.29769 l 2.950125,-3.80783 c -0.02937,-0.14337 -0.06192,-0.28833 -0.156938,-0.46453 -0.11396,-0.18527 -0.150711,-0.19681 -0.200882,-0.23855 z"
     id="path4158"
     inkscape:connector-curvature="0"
     sodipodi:nodetypes="cccccccccc" />
  <path
     style="fill:#050000;fill-opacity:1;fill-rule:evenodd;stroke:none;stroke-width:1px;stroke-linecap:butt;stroke-linejoin:miter;stroke-opacity:1"
     d="m 15.153639,15.67951 c -1.494805,1.37764 -2.519389,3.05089 -3.779085,4.57634 0.02137,0.22465 0.0763,0.44258 0.263657,0.63403 0.766095,0.5586 1.097282,0.73594 1.763992,0.20716 1.046259,-1.2848 3.16146,-3.57367 3.196922,-3.73812 0.1617,-0.19347 0.199592,-0.36658 0.186677,-0.63733 -0.03999,-0.83832 -1.23911,-1.32755 -1.632163,-1.04208 z"
     id="path4179"
     inkscape:connector-curvature="0"
     sodipodi:nodetypes="cccccsc" />
  <path
     style="fill:#050000;fill-opacity:1;fill-rule:evenodd;stroke:none;stroke-width:1px;stroke-linecap:butt;stroke-linejoin:miter;stroke-opacity:1"
     d="m 16.613657,17.3315 -3.169266,3.65957 c 0.107524,0.68649 1.143351,1.14352 1.633918,0.80906 0.253653,-0.21481 0.504892,-0.42239 0.790971,-0.73448 0.655231,-0.65984 1.235695,-1.41315 1.826767,-2.1532 0.113137,-0.0691 0.202894,-0.52354 0.100441,-0.79097 -0.141642,-0.41206 -0.485394,-0.77207 -0.910245,-0.77841 z"
     id="path4181"
     inkscape:connector-curvature="0"
     sodipodi:nodetypes="ccccccsc" />
  <path
     style="fill:#050000;fill-opacity:1;fill-rule:evenodd;stroke:none;stroke-width:1px;stroke-linecap:butt;stroke-linejoin:miter;stroke-opacity:1"
     d="m 17.418736,7.1495302 c -1.36606,0.48296 -2.65278,1.18961 -3.873618,1.99152 C 12.895627,10.51731 12.516857,11.9847 12.321497,12.791 c -0.09285,0.38321 0.467245,0.9053 0.888777,0.89975 0.291147,-0.004 0.736584,-0.18574 1.053367,-0.38404 0.534962,-0.33488 0.981407,-0.81219 1.360598,-1.31671 0.333243,-0.44339 0.760436,-1.39586 0.779053,-1.47032 l 1.73127,0.41501 c 1.035111,1.26089 2.132782,2.28211 3.335331,3.56543 0.251545,0.26843 0.07824,2.67625 0.02467,4.06245 l 0.449875,-0.46085 c 0.0075,-1.11535 0.08469,-2.27605 0.04389,-3.32469 -0.0098,-0.25173 -0.159831,-0.49379 -0.329177,-0.6803 -0.527993,-0.5815 -1.569077,-1.5581 -1.569077,-1.5581 l -1.82938,-2.04315 -2.032964,-0.44763 -0.691272,1.37158 c -0.328967,0.48018 -0.676162,0.96454 -1.034065,1.30005 0,0 -0.486116,0.36041 -0.866833,0.51914 -0.136215,0.0568 -0.410005,0.15772 -0.513165,0.12303 -0.164647,-0.0554 -0.48758,-0.23438 -0.41157,-0.59299 0.226307,-1.0677 0.627391,-2.27238 1.080996,-3.3242998 1.174474,-0.78399 2.348885,-1.46903 3.631919,-1.87631 l 0.04389,-0.40598 z"
     id="path4183"
     inkscape:connector-curvature="0"
     sodipodi:nodetypes="ccssaaccsccsscccccssscccc" />
  <path
     style="fill:#050000;fill-opacity:1;fill-rule:evenodd;stroke:none;stroke-width:1px;stroke-linecap:butt;stroke-linejoin:miter;stroke-opacity:1"
     d="m 17.424727,7.1492302 0.0025,0.41601 c 0,0 3.605809,1.0155 5.612945,2.6763498 l 4.125685,-0.0439 0.01097,6.93466 -4.334164,-0.0329 c -0.367307,0.55596 -0.853265,0.94581 -1.305736,1.38254 l 0.323607,0.0652 c 0.431274,-0.27864 0.775511,-0.62286 1.1138,-1.11855 l 4.35611,0.0549 0.230423,-0.0768 -0.02194,-7.4393998 -0.109725,-0.18654 -4.202494,0.0658 c -1.863146,-1.71325 -5.333166,-2.57798 -5.801979,-2.69735 z"
     id="path4185"
     inkscape:connector-curvature="0"
     sodipodi:nodetypes="ccccccccccccccc" />
  <path
     style="fill:#050000;fill-opacity:1;fill-rule:evenodd;stroke:none;stroke-width:1px;stroke-linecap:butt;stroke-linejoin:miter;stroke-opacity:1"
     d="m 17.730972,12.87878 c 0,0 0.01136,-0.24222 -0.06583,-0.31821 -0.05572,-0.0548 -0.167205,-0.0899 -0.230425,-0.0439 -0.143055,0.10411 -0.06583,0.52669 -0.06583,0.52669 l 2.622444,2.56758 0.07681,3.77456 c -0.239276,0.52578 -0.706227,0.51082 -1.174065,0.49377 l -0.02194,-3.00649 -2.381048,-2.16159 c -0.02979,0 0.0047,-0.18624 -0.02195,-0.29626 0,-0.0607 -0.179645,-0.16199 -0.274923,-0.0334 -0.03594,0.0647 -0.04802,0.3163 -0.01036,0.46134 l 2.326184,2.15062 0.06583,2.97848 c -0.218324,0.49268 -0.591388,0.70278 -1.206982,0.69733 l 0.06583,-1.59102 c 0,0 -0.449875,0.58154 -0.416957,0.63641 0.03292,0.0549 -0.01097,1.04239 -0.01097,1.04239 0,0 -0.283066,0.17369 -0.440379,0.22076 -0.619038,0.18523 -0.812019,-0.10428 -1.196011,-0.16459 l 0.247453,0.4389 c 0.130047,0.23067 1.547819,0.0639 1.608388,-0.2427 0.405346,0.25035 1.513078,-0.15448 1.584313,-0.74727 0.732283,0.17544 1.213179,-0.14501 1.63065,-0.6243 0.616656,-0.0702 1.094415,-0.51633 1.433967,-1.103 -0.07203,-0.0866 -0.07368,-0.20037 -0.352431,-0.0459 -0.297805,0.61981 -0.710556,0.70474 -1.092508,0.81967 l -0.06584,-3.76359 z"
     id="path4187"
     inkscape:connector-curvature="0"
     sodipodi:nodetypes="caacccccccccccccccscscccccccc" />
  <path
     style="fill:#050000;fill-opacity:1;fill-rule:evenodd;stroke:none;stroke-width:1px;stroke-linecap:butt;stroke-linejoin:miter;stroke-opacity:1"
     d="m 14.801296,16.0718 c 0,0.0193 -0.198417,-0.18801 -0.324291,-0.22394 -0.0669,-0.0191 -0.142183,0.13787 -0.147529,0.20199 -0.0099,0.11867 0.283685,0.26334 0.283685,0.26334 l 0.253971,-0.0439 z"
     id="path4189"
     inkscape:connector-curvature="0"
     sodipodi:nodetypes="cssccc" />
  <path
     sodipodi:nodetypes="ssccsccs"
     inkscape:connector-curvature="0"
     id="path4191"
     d="m 9.5965404,16.88648 -1.333921,1.28994 c -0.120697,0.11672 -0.123971,0.31759 -0.05187,0.50226 0.120385,0.2755 0.22876,0.47059 0.550594,0.61179 0.144872,0.055 0.415919,0.14216 0.547531,-0.0202 l 1.3052936,-1.61008 c -0.02823,-0.40933 0.03583,-0.49528 -0.400072,-0.74655 -0.177328,-0.0608 -0.4562906,-0.18313 -0.6175516,-0.0272 z"
     style="fill:#d0d0d0;fill-opacity:1;fill-rule:evenodd;stroke:none;stroke-width:1px;stroke-linecap:butt;stroke-linejoin:miter;stroke-opacity:1" />
  <path
     style="fill:#d0d0d0;fill-opacity:1;fill-rule:evenodd;stroke:none;stroke-width:1px;stroke-linecap:butt;stroke-linejoin:miter;stroke-opacity:1"
     d="m 13.255089,15.8994 c -0.23967,-0.0181 -0.513957,0.0329 -0.689439,0.21118 0,0 -1.59661,1.73977 -2.353863,2.58477 -0.196725,0.29473 -0.5127896,0.4528 -0.4156696,0.98341 0.04905,0.22294 0.2239796,0.41028 0.4164886,0.5278 0.238528,0.14105 0.551842,0.0581 0.816599,-0.0193 0.306098,-0.12783 0.462449,-0.38574 0.674606,-0.62269 l 2.338582,-2.80746 c -0.03564,-0.29717 -0.207046,-0.5385 -0.458482,-0.69971 -0.100989,-0.0686 -0.20756,-0.14887 -0.328822,-0.15803 z"
     id="path4193"
     inkscape:connector-curvature="0"
     sodipodi:nodetypes="acccccccca" />
  <path
     sodipodi:nodetypes="csscccsc"
     inkscape:connector-curvature="0"
     id="path4195"
     d="m 15.145629,16.05102 c -1.197292,1.43606 -2.388301,2.68126 -3.438244,3.99215 -0.123745,0.1545 -0.04891,0.45178 0.236564,0.66718 0.663513,0.50064 0.910275,0.43214 1.469264,-0.0112 0.917769,-1.12702 2.795011,-3.15489 2.826117,-3.29915 0.132569,-0.16508 0.171338,-0.2709 0.214759,-0.45705 0.0364,-0.16529 -0.01885,-0.41853 -0.192732,-0.59472 -0.51668,-0.52353 -0.886849,-0.42148 -1.115728,-0.29721 z"
     style="fill:#d0d0d0;fill-opacity:1;fill-rule:evenodd;stroke:none;stroke-width:1px;stroke-linecap:butt;stroke-linejoin:miter;stroke-opacity:1" />
  <path
     sodipodi:nodetypes="sscccss"
     inkscape:connector-curvature="0"
     id="path4197"
     d="m 13.841968,20.7808 c -0.298696,0.36801 0.527571,0.76949 0.868697,0.77913 0.484883,0.0137 0.733183,-0.51678 1.013954,-0.72762 0.537739,-0.63172 1.139362,-1.29057 1.667362,-1.95164 0.101064,-0.0617 0.239646,-0.37483 0.148126,-0.61372 -0.188939,-0.3837 -0.472844,-0.66213 -0.787451,-0.68048 -0.236961,-0.0138 -2.173568,2.28615 -2.910688,3.19433 z"
     style="fill:#d0d0d0;fill-opacity:1;fill-rule:evenodd;stroke:none;stroke-width:1px;stroke-linecap:butt;stroke-linejoin:miter;stroke-opacity:1" />
  <path
     style="fill:#000000;fill-opacity:0;fill-rule:evenodd;stroke:none;stroke-width:1px;stroke-linecap:butt;stroke-linejoin:miter;stroke-opacity:1"
     d="m 17.387966,7.2581402 c 0,0 -3.505813,1.93042 -3.572379,2.01917 -0.06657,0.0888 -1.331321,3.4170598 -1.331321,3.4170598 l 0.66566,0.93192 3.195171,-3.37268 1.86385,0.5991 3.594567,3.61676 -0.110943,3.97177 c 0,0 1.042869,-1.10943 1.131623,-1.06506 0.08875,0.0444 4.548681,0.0222 4.548681,0.0222 l -0.06657,-7.32226 -4.193662,0.0887 z"
     id="path4201"
     inkscape:connector-curvature="0" />
</svg>
