<?xml version="1.0" encoding="UTF-8" standalone="no"?>
<!-- Created with Inkscape (http://www.inkscape.org/) -->

<svg
   xmlns:dc="http://purl.org/dc/elements/1.1/"
   xmlns:cc="http://creativecommons.org/ns#"
   xmlns:rdf="http://www.w3.org/1999/02/22-rdf-syntax-ns#"
   xmlns:svg="http://www.w3.org/2000/svg"
   xmlns="http://www.w3.org/2000/svg"
   xmlns:sodipodi="http://sodipodi.sourceforge.net/DTD/sodipodi-0.dtd"
   xmlns:inkscape="http://www.inkscape.org/namespaces/inkscape"
   id="svg2"
   version="1.1"
   inkscape:version="0.48+devel r"
   width="50"
   height="50"
   viewBox="0 0 50 50"
   sodipodi:docname="collaboration-handshake-small.svg">
  <metadata
     id="metadata8">
    <rdf:RDF>
      <cc:Work
         rdf:about="">
        <dc:format>image/svg+xml</dc:format>
        <dc:type
           rdf:resource="http://purl.org/dc/dcmitype/StillImage" />
        <dc:title></dc:title>
      </cc:Work>
    </rdf:RDF>
  </metadata>
  <defs
     id="defs6" />
  <sodipodi:namedview
     pagecolor="#ffffff"
     bordercolor="#666666"
     borderopacity="1"
     objecttolerance="10"
     gridtolerance="10"
     guidetolerance="10"
     inkscape:pageopacity="0"
     inkscape:pageshadow="2"
     inkscape:window-width="1855"
     inkscape:window-height="1056"
     id="namedview4"
     showgrid="false"
     inkscape:zoom="1"
     inkscape:cx="33.5"
     inkscape:cy="34"
     inkscape:window-x="65"
     inkscape:window-y="24"
     inkscape:window-maximized="1"
     inkscape:current-layer="svg2"
     showguides="true"
     showborder="true" />
  <path
     style="fill:#d0d0d0;fill-opacity:1;fill-rule:evenodd;stroke:none;stroke-width:1px;stroke-linecap:butt;stroke-linejoin:miter;stroke-opacity:1"
     d="m 38.248904,18.965608 c -0.258867,-0.221814 -9.319258,-4.658088 -9.467183,-4.58415 -0.147925,0.07394 -6.397747,3.327206 -6.397747,3.327206 l -2.107926,6.247751 c 0.433538,0.795421 1.252206,0.564166 1.960002,0.628472 0.297132,0.528056 4.713233,-4.603903 4.437742,-5.397465 -0.12125,-0.349257 2.921515,0.66544 3.254345,1.072098 0.332832,0.406658 5.806046,5.767156 5.843029,5.915032 0.03697,0.147876 0.03697,6.469567 0.03697,6.469567 0,0 1.627172,-1.77451 2.033966,-1.626635 0.406792,0.147875 7.21133,-0.03697 7.21133,-0.03697 0,0 0.110938,-12.125814 -0.03699,-12.125814 -0.147924,0 -6.767558,0.110913 -6.767558,0.110913 z"
     id="path4203"
     inkscape:connector-curvature="0"
     sodipodi:nodetypes="cscccssscscsc" />
  <path
     style="fill:#b9b9b9;fill-opacity:1;fill-rule:evenodd;stroke:none;stroke-width:1px;stroke-linecap:butt;stroke-linejoin:miter;stroke-opacity:1"
     d="m 5.7054598,18.706824 c 0.1479248,0.221815 0.1479248,12.088848 0.1479248,12.088848 l 6.6196324,0.221812 12.721529,6.136846 c 2.211822,0.820477 9.853803,-2.926944 10.687563,-4.362336 0,0 -0.369813,-6.284721 -0.258868,-6.432597 0.110937,-0.147877 -5.658122,-6.025939 -5.658122,-6.025939 0,0 -3.432817,-1.211134 -3.365288,-1.03513 0.196052,0.510987 -3.401392,5.354333 -3.661138,4.990808 0,0 -2.625665,0.554533 -2.625665,-0.110913 0,-0.665441 1.664154,-5.915031 1.81208,-6.210783 0.147925,-0.295751 2.773588,-1.848447 2.773588,-1.848447 -1.802551,-0.595427 -3.732703,-0.808179 -5.732084,-0.813317 -1.795872,0.383452 -3.595426,0.687281 -5.58416,3.17933 z"
     id="path4199"
     inkscape:connector-curvature="0"
     sodipodi:nodetypes="cccccscscsscccc" />
  <path
     style="fill:#060000;fill-opacity:1;fill-rule:evenodd;stroke:none;stroke-width:1px;stroke-linecap:butt;stroke-linejoin:miter;stroke-opacity:1"
     d="m 5.4037066,18.222559 0.1443132,13.080073 6.7827232,0.04809 0.86588,0.625152 c 0,0 0.81199,-0.397005 0.523363,-0.493181 -0.288626,-0.09618 -1.244929,-0.901387 -1.244929,-0.901387 L 6.1252731,30.485129 5.9809597,18.847712 c 0,0 4.4000313,-0.01574 7.5042903,0 1.255188,-1.296531 2.254961,-2.001049 3.997308,-2.657942 0.931652,-0.242527 1.827237,-0.521976 2.767331,-0.624007 0.71137,-0.07721 1.439554,-0.09793 2.146614,0.01187 0.688754,0.107012 1.275415,0.206032 1.995923,0.623388 0.11125,0.06445 0.810676,-0.18358 0.618472,-0.344134 -0.55672,-0.465044 -1.457265,-0.742852 -2.29351,-0.867104 -0.937391,-0.139279 -1.477015,-0.06983 -2.208891,0.01075 -1.100181,0.121175 -2.202046,0.334596 -3.244352,0.706882 -0.873937,0.312151 -1.710428,0.746352 -2.480075,1.264747 -0.527916,0.355576 -1.035246,0.869181 -1.443133,1.250301 -3.152348,-0.08546 -7.9372304,0 -7.9372304,10e-7 z"
     id="path3339"
     inkscape:connector-curvature="0"
     sodipodi:nodetypes="ccccscccccaasssaaacc" />
  <path
     style="fill:none;fill-rule:evenodd;stroke:#000000;stroke-width:0.13274625px;stroke-linecap:butt;stroke-linejoin:miter;stroke-opacity:0"
     d="m 28.434129,14.799249 c -0.03696,-0.184905 -5.866063,2.859328 -5.965856,3.049204 -0.09389,0.17863 -1.839098,5.380945 -1.839098,5.380945 l 0.134566,0.964088 c 0.687795,0.291554 1.375587,0.05029 2.063381,-0.246628 0.838697,-0.544457 1.590402,-1.393295 2.310088,-2.354164 l 1.300825,-2.668051 3.633341,0.941664 5.607009,6.008724 c 0.06881,0 0.512371,1.322817 0.426133,1.547022 -0.0809,0.210313 -0.156997,4.910115 -0.156997,4.910115 l 1.659674,-1.614284 c 0,0 7.087259,0.269046 7.154544,0.156944 0.06729,-0.1121 0,-11.636298 0,-11.636298 0,0 -6.792631,0.178824 -6.907835,0 -0.41511,-0.644345 -8.67547,-4.812409 -9.419775,-4.439281 z"
     id="path4143"
     inkscape:connector-curvature="0"
     sodipodi:nodetypes="cscccccccsccscsc" />
  <path
     style="fill:#050000;fill-opacity:1;fill-rule:evenodd;stroke:none;stroke-width:1px;stroke-linecap:butt;stroke-linejoin:miter;stroke-opacity:1"
     d="m 15.532176,29.738232 c -1.069749,0.716175 -1.892767,1.740664 -2.839151,2.610995 -0.185364,0.409112 -0.159356,0.800617 -0.0105,1.181884 0.248618,0.568772 0.601323,1.068176 1.265974,1.359686 0.29919,0.113613 0.683611,0.227323 1.302309,0.100738 l 2.432837,-3.447661 c -0.02946,-0.350168 -0.09068,-0.615395 -0.209252,-0.899485 -0.174649,-0.418406 -0.916904,-0.868899 -0.930179,-0.848994 -0.351357,-0.147807 -0.776204,-0.14392 -1.012076,-0.05716 z"
     id="path4156"
     inkscape:connector-curvature="0"
     sodipodi:nodetypes="ccccccscc" />
  <path
     style="fill:#050000;fill-opacity:1;fill-rule:evenodd;stroke:none;stroke-width:1px;stroke-linecap:butt;stroke-linejoin:miter;stroke-opacity:1"
     d="m 22.83128,28.625777 c -1.161652,-0.841872 -2.083701,-0.591078 -2.69935,0.03138 -1.73155,1.81048 -3.284321,3.728195 -4.886032,5.616553 -0.02171,0.356287 -0.09571,0.699502 0.09416,1.108669 0.146585,0.477809 0.523116,0.83302 1.08811,1.08775 0.296126,0.154503 0.621097,0.208074 0.973021,0.167345 0.381027,-0.07337 0.866517,-0.229524 1.109574,-0.495987 l 4.916881,-6.344285 c -0.04895,-0.238879 -0.1032,-0.480405 -0.261565,-0.773976 -0.189932,-0.308672 -0.251185,-0.327907 -0.334803,-0.397447 z"
     id="path4158"
     inkscape:connector-curvature="0"
     sodipodi:nodetypes="cccccccccc" />
  <path
     style="fill:#050000;fill-opacity:1;fill-rule:evenodd;stroke:none;stroke-width:1px;stroke-linecap:butt;stroke-linejoin:miter;stroke-opacity:1"
     d="m 24.725009,28.301543 c -2.491345,2.295298 -4.198988,5.083139 -6.298483,7.624708 0.03561,0.374289 0.127169,0.737396 0.439429,1.056372 1.276827,0.930697 1.828805,1.226155 2.93999,0.345152 1.743767,-2.140636 5.269107,-5.954145 5.328209,-6.228149 0.269501,-0.322344 0.332654,-0.610759 0.311129,-1.061867 -0.06665,-1.396742 -2.065186,-2.211854 -2.720274,-1.736216 z"
     id="path4179"
     inkscape:connector-curvature="0"
     sodipodi:nodetypes="cccccsc" />
  <path
     style="fill:#050000;fill-opacity:1;fill-rule:evenodd;stroke:none;stroke-width:1px;stroke-linecap:butt;stroke-linejoin:miter;stroke-opacity:1"
     d="m 27.158374,31.053947 -5.282115,6.09726 c 0.179205,1.143774 1.905587,1.905246 2.723199,1.34799 0.422755,-0.3579 0.841489,-0.70374 1.318286,-1.223717 1.092055,-1.099383 2.059494,-2.354482 3.044616,-3.587483 0.188563,-0.11505 0.338158,-0.87228 0.167401,-1.317851 -0.236069,-0.686551 -0.808991,-1.286365 -1.517075,-1.296932 z"
     id="path4181"
     inkscape:connector-curvature="0"
     sodipodi:nodetypes="ccccccsc" />
  <path
     style="fill:#050000;fill-opacity:1;fill-rule:evenodd;stroke:none;stroke-width:1px;stroke-linecap:butt;stroke-linejoin:miter;stroke-opacity:1"
     d="m 28.500174,14.089591 c -2.276768,0.804667 -4.421304,1.982032 -6.456036,3.318106 -1.082487,2.293014 -1.713772,4.737857 -2.039373,6.081237 -0.154749,0.63847 0.778744,1.508345 1.481298,1.49909 0.485244,-0.0064 1.227641,-0.309464 1.755612,-0.639856 0.891606,-0.557944 1.635682,-1.353197 2.267667,-2.193788 0.555405,-0.738734 1.267396,-2.325661 1.298422,-2.449732 l 2.885455,0.69146 c 1.725186,2.100792 3.554641,3.802261 5.558891,5.940417 0.419243,0.447252 0.130406,4.458948 0.04111,6.76852 l 0.749795,-0.767826 c 0.0125,-1.858309 0.141147,-3.79217 0.07315,-5.539319 -0.01633,-0.419407 -0.266387,-0.822715 -0.54863,-1.133456 -0.879991,-0.968852 -2.61513,-2.595986 -2.61513,-2.595986 l -3.048972,-3.404123 -3.388276,-0.745796 -1.152121,2.285197 c -0.54828,0.800045 -1.126939,1.607051 -1.723445,2.16604 0,0 -0.810194,0.600494 -1.444724,0.864953 -0.227024,0.09461 -0.683342,0.262771 -0.855276,0.204978 -0.274413,-0.09224 -0.812633,-0.390509 -0.685949,-0.987991 0.377179,-1.778908 1.045652,-3.786046 1.80166,-5.538665 1.957461,-1.306228 3.914815,-2.447588 6.053207,-3.126149 l 0.07315,-0.676417 z"
     id="path4183"
     inkscape:connector-curvature="0"
     sodipodi:nodetypes="ccssaaccsccsscccccssscccc" />
  <path
     style="fill:#050000;fill-opacity:1;fill-rule:evenodd;stroke:none;stroke-width:1px;stroke-linecap:butt;stroke-linejoin:miter;stroke-opacity:1"
     d="m 28.510159,14.089091 0.0041,0.693115 c 0,0 6.009689,1.691944 9.354918,4.459122 l 6.876149,-0.07313 0.01829,11.553958 -7.223614,-0.05485 c -0.612179,0.926295 -1.42211,1.575832 -2.176228,2.303479 l 0.539345,0.1086 c 0.71879,-0.464257 1.29252,-1.037753 1.856333,-1.863632 l 7.260192,0.09141 0.38404,-0.12797 -0.03657,-12.394912 -0.182877,-0.310787 -7.004164,0.109688 c -3.105247,-2.854475 -8.88862,-4.295216 -9.669976,-4.4941 z"
     id="path4185"
     inkscape:connector-curvature="0"
     sodipodi:nodetypes="ccccccccccccccc" />
  <path
     style="fill:#050000;fill-opacity:1;fill-rule:evenodd;stroke:none;stroke-width:1px;stroke-linecap:butt;stroke-linejoin:miter;stroke-opacity:1"
     d="m 29.020567,23.635188 c 0,0 0.01893,-0.403571 -0.109725,-0.530167 -0.09287,-0.09139 -0.278675,-0.149782 -0.384041,-0.07313 -0.238424,0.173457 -0.109725,0.877516 -0.109725,0.877516 l 4.370744,4.277888 0.128014,6.288864 c -0.398795,0.876002 -1.177049,0.851092 -1.956778,0.822672 l -0.03657,-5.009154 -3.968417,-3.60147 c -0.04965,0 0.0079,-0.310286 -0.03657,-0.493603 0,-0.101138 -0.29941,-0.269889 -0.458206,-0.05566 -0.0599,0.107712 -0.08002,0.526993 -0.01728,0.768637 l 3.876978,3.58319 0.109725,4.962499 c -0.363872,0.820853 -0.985648,1.170911 -2.011638,1.16183 l 0.109725,-2.650829 c 0,0 -0.749792,0.968924 -0.694928,1.060331 0.05486,0.09141 -0.01829,1.73675 -0.01829,1.73675 0,0 -0.471776,0.289386 -0.733967,0.367812 -1.031728,0.308617 -1.353365,-0.173744 -1.993352,-0.274224 l 0.412422,0.731263 c 0.216745,0.384312 2.5797,0.106475 2.680649,-0.404374 0.675578,0.417104 2.521799,-0.257385 2.640524,-1.245046 1.220474,0.292311 2.021969,-0.241594 2.717754,-1.040151 1.027761,-0.116975 1.824026,-0.860265 2.389948,-1.837721 -0.120038,-0.144379 -0.1228,-0.333848 -0.587386,-0.0764 -0.496344,1.032682 -1.184261,1.174174 -1.820849,1.365669 l -0.109725,-6.270581 z"
     id="path4187"
     inkscape:connector-curvature="0"
     sodipodi:nodetypes="caacccccccccccccccscscccccccc" />
  <path
     style="fill:#050000;fill-opacity:1;fill-rule:evenodd;stroke:none;stroke-width:1px;stroke-linecap:butt;stroke-linejoin:miter;stroke-opacity:1"
     d="m 24.13777,28.955128 c 0,0.03219 -0.330697,-0.313236 -0.540486,-0.373105 -0.1115,-0.03183 -0.236971,0.229715 -0.245881,0.33654 -0.01649,0.197715 0.472808,0.438759 0.472808,0.438759 l 0.423285,-0.07313 z"
     id="path4189"
     inkscape:connector-curvature="0"
     sodipodi:nodetypes="cssccc" />
  <path
     sodipodi:nodetypes="ssccsccs"
     inkscape:connector-curvature="0"
     id="path4191"
     d="m 15.463168,30.312484 -2.223204,2.149194 c -0.201161,0.194464 -0.206619,0.529137 -0.08645,0.836829 0.200642,0.459015 0.381266,0.784059 0.917656,1.019316 0.241455,0.09169 0.693201,0.23685 0.912554,-0.03364 l 2.175492,-2.682584 c -0.04705,-0.681991 0.05973,-0.825194 -0.666788,-1.243827 -0.295546,-0.101338 -0.760485,-0.305117 -1.029254,-0.0453 z"
     style="fill:#d0d0d0;fill-opacity:1;fill-rule:evenodd;stroke:none;stroke-width:1px;stroke-linecap:butt;stroke-linejoin:miter;stroke-opacity:1" />
  <path
     style="fill:#d0d0d0;fill-opacity:1;fill-rule:evenodd;stroke:none;stroke-width:1px;stroke-linecap:butt;stroke-linejoin:miter;stroke-opacity:1"
     d="m 21.560754,28.667899 c -0.39945,-0.03016 -0.856595,0.05486 -1.149067,0.351854 0,0 -2.661018,2.898652 -3.923107,4.306522 -0.327874,0.49106 -0.854651,0.754415 -0.692784,1.63848 0.08176,0.371445 0.373301,0.683569 0.694149,0.879369 0.397547,0.235011 0.919739,0.09674 1.361001,-0.0321 0.510161,-0.212976 0.770747,-0.642683 1.124342,-1.037463 l 3.89764,-4.677569 c -0.05941,-0.495113 -0.345075,-0.897205 -0.764137,-1.165796 -0.168314,-0.114213 -0.345934,-0.248033 -0.548037,-0.263291 z"
     id="path4193"
     inkscape:connector-curvature="0"
     sodipodi:nodetypes="acccccccca" />
  <path
     sodipodi:nodetypes="csscccsc"
     inkscape:connector-curvature="0"
     id="path4195"
     d="m 24.711659,28.92052 c -1.99549,2.392631 -3.980507,4.467284 -5.730415,6.651389 -0.206241,0.257417 -0.08153,0.752713 0.394274,1.111593 1.105858,0.834123 1.517128,0.719995 2.448777,-0.01866 1.529616,-1.877748 4.658356,-5.256417 4.710201,-5.496772 0.220948,-0.275032 0.285564,-0.451352 0.357932,-0.761497 0.06067,-0.27539 -0.03141,-0.697311 -0.321222,-0.990864 -0.861132,-0.872261 -1.478081,-0.702234 -1.859547,-0.495188 z"
     style="fill:#d0d0d0;fill-opacity:1;fill-rule:evenodd;stroke:none;stroke-width:1px;stroke-linecap:butt;stroke-linejoin:miter;stroke-opacity:1" />
  <path
     sodipodi:nodetypes="sscccss"
     inkscape:connector-curvature="0"
     id="path4197"
     d="m 22.538887,36.80088 c -0.497826,0.613147 0.879286,1.282053 1.447831,1.298114 0.808139,0.02282 1.221973,-0.861001 1.689925,-1.212287 0.896233,-1.052528 1.898938,-2.15024 2.778939,-3.25167 0.168441,-0.102775 0.399412,-0.624499 0.246878,-1.022525 -0.314899,-0.639288 -0.788075,-1.103191 -1.312419,-1.133756 -0.394936,-0.02303 -3.622619,3.808999 -4.851154,5.322124 z"
     style="fill:#d0d0d0;fill-opacity:1;fill-rule:evenodd;stroke:none;stroke-width:1px;stroke-linecap:butt;stroke-linejoin:miter;stroke-opacity:1" />
  <path
     style="fill:#000000;fill-opacity:0;fill-rule:evenodd;stroke:none;stroke-width:1px;stroke-linecap:butt;stroke-linejoin:miter;stroke-opacity:1"
     d="m 28.448891,14.270551 c 0,0 -5.843028,3.216299 -5.953973,3.364174 -0.11095,0.147876 -2.21887,5.693219 -2.21887,5.693219 l 1.109435,1.552695 5.325291,-5.61928 3.106421,0.998161 5.990951,6.025939 -0.184905,6.617442 c 0,0 1.738115,-1.848448 1.886039,-1.77451 0.147925,0.07394 7.581145,0.03698 7.581145,0.03698 l -0.11095,-12.199752 -6.989444,0.147876 z"
     id="path4201"
     inkscape:connector-curvature="0" />
</svg>
